<?xml version="1.0" encoding="utf-8"?>
<!-- Generator: Adobe Illustrator 21.0.2, SVG Export Plug-In . SVG Version: 6.00 Build 0)  -->
<svg version="1.1" id="layout" xmlns="http://www.w3.org/2000/svg" xmlns:xlink="http://www.w3.org/1999/xlink" x="0px" y="0px"
	 viewBox="0 0 490.5 342" style="enable-background:new 0 0 490.5 342;" xml:space="preserve">
<style type="text/css">
	.st0{fill:none;stroke:#FFFFFF;stroke-width:3;stroke-miterlimit:10;}
	.st1{fill:#FFFFFF;}
</style>
<circle id="bg-circle" class="st0" cx="244.4" cy="90.4" r="83.9"/>
<path id="bird" class="st1" d="M255.1,112.2c0,0,10,2.3,18.5-3.8c0,0,12-6,18.3-14l2-5c0,0,3.8-2.5,4.3-6.3c0,0,3.8-2.3,2.3-7
	c0,0,5.2-2.5,0.4-8.8c0,0,2.5-2.5,2.1-5l-1.4-6c0,0-1.3,4-2.8,4.8c0,0,3.3-7,0.8-10c0,0-0.3,5.3-2,6.3c0,0-0.3-2.5-2.5-4.3
	c0,0-1,9.8-10,15.3c0,0-1.5,3.3-9,2.8c0,0-10.8,3.5-14.3,3.5c0,0-9.5,3.5-10-4c0,0-1.5-2.5,0-9c0,0,0.4-2.8-0.7-7.3l1.7-7.8l-5,3.8
	c0,0-10.5-1-13.8,15.3c0,0,0.5,7.3-5.5,8.8c0,0-11.5-7.3-14.3-7.8c0,0-14.5-3-18.3-9.5c0,0-4.5-5.5-2.8-10.5c0,0-3,1-3.5,5l-1.8-0.5
	c0,0-1,3,0,7c0,0-2.4,2.8-0.4,7c0,0,0.4,5,2.9,5.8l1.3,2c0,0-0.5,3,1.5,5c0,0-0.3,3,2.3,4.5c0,0-0.5,1.5,1.8,3.8c0,0,0,6,10.5,14.8
	c0,0,6,8.5,19,8.3c0,0,2-0.3,5.5-3.3c0,0,0.5,5.5,8,13.3c0,0,0.5,18.3,1.8,26.3c0,0,6,8.3,22.3,0c0,0,9-3.8,10.3-16l-1.5-2l-17.5-12
	L255.1,112.2z"/>
<g id="text">
	<g id="text-crystal">
		<path class="st1" d="M75.9,315.1c-1.4-1.3-2.8-2.2-4.4-2.8c-1.5-0.6-3.2-0.9-5.1-0.9c-1.5,0-3,0.3-4.4,0.8s-2.7,1.2-3.7,2.2
			c-1.1,1-1.9,2-2.4,3.2s-0.8,2.5-0.8,3.9c0,1.1,0.2,2.2,0.5,3.1c0.3,1,0.8,1.8,1.5,2.6c1.1,1.4,2.5,2.4,4.2,3.2
			c1.7,0.7,3.5,1.1,5.4,1.1c1.8,0,3.5-0.3,5-1c1.6-0.6,3-1.6,4.3-2.9v3.8c-1.4,0.9-2.9,1.5-4.6,2c-1.6,0.4-3.3,0.7-5,0.7
			c-1.5,0-3-0.2-4.4-0.6s-2.8-0.9-4-1.7c-2.1-1.2-3.7-2.7-4.7-4.5c-1.1-1.8-1.6-3.8-1.6-5.9c0-1.9,0.4-3.6,1.1-5.1
			c0.7-1.5,1.8-2.9,3.4-4.2c1.4-1.2,3.1-2.1,4.8-2.7c1.8-0.6,3.7-0.9,5.8-0.9c1.6,0,3.2,0.2,4.8,0.6c1.5,0.4,3.1,1.1,4.6,2v4
			L75.9,315.1L75.9,315.1z"/>
		<path class="st1" d="M121.2,333.6v-24.3h6.7c1.9,0,3.3,0.1,4.2,0.3c0.9,0.2,1.7,0.5,2.3,0.9c0.8,0.6,1.5,1.3,2,2.3
			c0.5,0.9,0.7,2,0.7,3.1c0,2-0.7,3.5-2,4.5s-3.2,1.6-5.7,1.6h-0.6l10.9,11.6h-4.3L125,322h-0.5v11.6H121.2z M124.5,311.7v8.1h2.6
			c2.6,0,4.4-0.3,5.3-0.9s1.3-1.6,1.3-3c0-1.6-0.5-2.7-1.4-3.3c-0.9-0.6-2.7-0.9-5.3-0.9L124.5,311.7L124.5,311.7z"/>
		<path class="st1" d="M187.6,333.6v-11.1l-9.6-13.2h3.9l7.4,10.5l7.4-10.5h3.9l-9.6,13.2v11.1H187.6z"/>
		<path class="st1" d="M254.1,320.1c1.9,0.7,3.2,1.6,4.2,2.7c0.9,1.1,1.4,2.4,1.4,4c0,2.2-0.8,4-2.5,5.4c-1.7,1.4-3.9,2-6.6,2
			c-2.2,0-4.1-0.5-5.6-1.5s-2.5-2.4-3.1-4.2l3.1-1.3c0.4,1.5,1.1,2.6,2,3.3c1,0.8,2.1,1.1,3.6,1.1c1.7,0,3.1-0.4,4.1-1.3
			c1-0.8,1.6-1.9,1.6-3.3c0-1.1-0.4-2-1.1-2.8c-0.7-0.8-1.8-1.5-3.3-2l-3.5-1.3c-1.9-0.7-3.3-1.5-4.2-2.6s-1.4-2.3-1.4-3.8
			c0-1.7,0.8-3.2,2.3-4.3c1.5-1.1,3.4-1.7,5.7-1.7c1.7,0,3.2,0.3,4.4,0.9c1.2,0.6,2.2,1.5,2.9,2.7l-2.8,1.5
			c-0.6-0.9-1.3-1.6-2.1-2.1s-1.7-0.7-2.7-0.7c-1.3,0-2.3,0.3-3.1,1s-1.2,1.5-1.2,2.5c0,0.9,0.3,1.6,0.9,2.2
			c0.6,0.6,1.6,1.2,2.9,1.7L254.1,320.1z"/>
		<path class="st1" d="M308.7,333.6V312h-8v-2.8h19.5v2.8h-8v21.5h-3.5V333.6z"/>
		<path class="st1" d="M369.6,308.3l12.9,25.3h-3.7l-3.7-7.5H364l-3.7,7.5h-3.7L369.6,308.3z M369.6,314.7l-4.5,8.9h9.1L369.6,314.7
			z"/>
		<path class="st1" d="M425,333.6v-24.3h3.4v21.5h10.7v2.8H425z"/>
	</g>
	<g id="text-asfour">
		<g>
			<path class="st1" d="M39.9,221.9l30.8,55H62l-8.8-16.2H26.7l-8.8,16.2H9.2L39.9,221.9z M39.9,235.8l-10.8,19.5h21.5L39.9,235.8z"
				/>
		</g>
		<g>
			<path class="st1" d="M127.3,247.5c4.5,1.5,7.8,3.4,10.1,5.9c2.3,2.4,3.4,5.3,3.4,8.6c0,4.9-2,8.8-6,11.8s-9.3,4.5-15.9,4.5
				c-5.4,0-9.9-1.1-13.5-3.2s-6.1-5.2-7.4-9.1l7.4-2.8c1,3.2,2.6,5.6,4.9,7.3c2.3,1.6,5.2,2.5,8.6,2.5c4.1,0,7.4-0.9,9.9-2.7
				c2.5-1.8,3.8-4.2,3.8-7.1c0-2.4-0.9-4.4-2.6-6.2c-1.8-1.7-4.4-3.2-8-4.4l-8.3-2.7c-4.5-1.5-7.9-3.4-10.2-5.7
				c-2.2-2.3-3.3-5.1-3.3-8.3c0-3.8,1.8-6.9,5.4-9.3c3.6-2.5,8.2-3.7,13.8-3.7c4.1,0,7.7,0.7,10.7,2c3,1.3,5.3,3.3,7,6l-6.7,3.3
				c-1.5-2-3.2-3.6-5.1-4.6s-4-1.5-6.4-1.5c-3.1,0-5.5,0.7-7.5,2.2c-1.9,1.4-2.9,3.3-2.9,5.5c0,1.9,0.7,3.5,2.2,4.9s3.8,2.6,7,3.6
				L127.3,247.5z"/>
		</g>
		<g>
			<path class="st1" d="M308.9,250.6c0,3.8-0.9,7.3-2.6,10.7c-1.7,3.3-4.3,6.3-7.6,8.9c-3.3,2.6-7.1,4.6-11.4,6s-8.8,2.1-13.4,2.1
				s-9.1-0.7-13.4-2.1s-8.1-3.4-11.4-6c-3.3-2.6-5.9-5.6-7.6-9c-1.7-3.3-2.6-6.9-2.6-10.7s0.9-7.4,2.6-10.7c1.7-3.4,4.3-6.4,7.6-9
				s7.1-4.6,11.4-6s8.8-2.1,13.4-2.1c4.7,0,9.1,0.7,13.4,2.1c4.3,1.4,8.1,3.4,11.4,6s5.8,5.6,7.6,8.9
				C308,243.2,308.9,246.8,308.9,250.6z M273.9,272.4c3.6,0,7-0.5,10.2-1.6s6.2-2.7,8.7-4.8c2.6-2.1,4.5-4.4,5.9-7
				c1.3-2.6,2-5.4,2-8.3c0-3-0.7-5.8-2-8.5c-1.4-2.7-3.3-5-5.8-7.1c-2.6-2.1-5.5-3.6-8.7-4.7c-3.2-1.1-6.7-1.6-10.3-1.6
				c-3.6,0-7.1,0.5-10.3,1.6c-3.3,1.1-6.1,2.7-8.6,4.7c-2.6,2.1-4.5,4.5-5.9,7.1c-1.3,2.7-2,5.5-2,8.4s0.7,5.7,2,8.3s3.3,5,5.9,7.1
				c2.6,2.1,5.5,3.7,8.7,4.8C266.9,271.8,270.3,272.4,273.9,272.4z"/>
		</g>
		<g>
			<path class="st1" d="M348.2,224h8.1v32.9c0,5.3,1.4,9.3,4.3,11.8s7.4,3.8,13.6,3.8s10.7-1.3,13.6-3.8s4.3-6.4,4.3-11.8V224h8.1
				v32.9c0,7.2-2.2,12.5-6.5,16.1s-10.9,5.3-19.6,5.3s-15.2-1.8-19.5-5.3c-4.3-3.6-6.5-8.9-6.5-16.1V224H348.2z"/>
		</g>
		<g>
			<path class="st1" d="M440.7,276.9V224h14.7c4.2,0,7.2,0.2,9.2,0.6c1.9,0.4,3.7,1.1,5.1,2c1.8,1.2,3.3,2.9,4.3,4.9
				c1,2.1,1.5,4.3,1.5,6.8c0,4.3-1.4,7.6-4.3,9.9c-2.9,2.3-7,3.4-12.6,3.4h-1.3l23.9,25.2h-9.4L449,251.6h-1v25.2L440.7,276.9
				L440.7,276.9z M448,229.3V247h5.7c5.8,0,9.7-0.6,11.7-1.9c2-1.3,2.9-3.5,2.9-6.6c0-3.4-1-5.8-3-7.1c-2-1.4-5.9-2-11.6-2
				L448,229.3L448,229.3z"/>
		</g>
		<g>
			<path class="st1" d="M177.9,276.9V224h34.4v5.7h-26.6v15.2h26.6v5.9h-26.6v26.1H177.9z"/>
		</g>
	</g>
</g>
</svg>
